<svg id="Layer_1" data-name="Layer 1" xmlns="http://www.w3.org/2000/svg" viewBox="0 0 1745 737.38"><defs><style>.cls-1{fill:#4a7abc;}.cls-2{fill:#7bbf87;}.cls-3{fill:#f9b33d;}.cls-4{fill:#e5388b;}</style></defs><title>Graph</title><rect class="cls-1" y="569.48" width="121.05" height="167.9"/><rect class="cls-2" x="147.53" y="569.48" width="121.04" height="167.9"/><rect class="cls-2" x="147.53" y="379.66" width="121.04" height="167.89"/><rect class="cls-3" x="295.08" y="569.48" width="121.05" height="167.9"/><rect class="cls-3" x="295.08" y="379.66" width="121.05" height="167.89"/><rect class="cls-4" x="442.62" y="569.48" width="121.04" height="167.9"/><rect class="cls-4" x="442.62" y="379.66" width="121.04" height="167.89"/><rect class="cls-4" x="442.62" y="189.83" width="121.04" height="167.89"/><rect class="cls-1" x="590.14" y="569.48" width="121.05" height="167.9"/><rect class="cls-1" x="590.14" y="379.66" width="121.05" height="167.89"/><rect class="cls-1" x="590.14" y="189.83" width="121.05" height="167.89"/><rect class="cls-3" x="737.68" y="569.48" width="121.05" height="167.9"/><rect class="cls-3" x="737.68" y="379.66" width="121.05" height="167.89"/><rect class="cls-3" x="737.68" y="189.83" width="121.05" height="167.89"/><rect class="cls-3" x="737.68" width="121.05" height="167.9"/><rect class="cls-4" x="885.21" y="569.48" width="121.06" height="167.9"/><rect class="cls-4" x="885.21" y="379.66" width="121.06" height="167.89"/><rect class="cls-2" x="1032.77" y="569.48" width="121.04" height="167.9"/><rect class="cls-2" x="1032.77" y="379.66" width="121.04" height="167.89"/><rect class="cls-1" x="1181.35" y="569.48" width="121.04" height="167.9"/><rect class="cls-3" x="1328.87" y="569.48" width="121.05" height="167.9"/><rect class="cls-3" x="1328.87" y="379.66" width="121.05" height="167.89"/><rect class="cls-3" x="1328.87" y="189.83" width="121.05" height="167.89"/><rect class="cls-4" x="1476.42" y="569.48" width="121.05" height="167.9"/><rect class="cls-4" x="1476.42" y="379.66" width="121.05" height="167.89"/><rect class="cls-2" x="1623.96" y="569.48" width="121.04" height="167.9"/><rect class="cls-2" x="1623.96" y="379.66" width="121.04" height="167.89"/></svg>